0
SECTION
2
HEADER
9
$INSUNITS
70
4
9
$ACADVER
1
AC1014
9
$HANDSEED
5
FFFF
0
ENDSEC
0
SECTION
2
TABLES
0
TABLE
2
VPORT
5
8
100
AcDbSymbolTable
0
ENDTAB
0
TABLE
2
LTYPE
5
5
100
AcDbSymbolTable
0
LTYPE
5
14
100
AcDbSymbolTableRecord
100
AcDbLinetypeTableRecord
2
BYBLOCK
70
0
0
LTYPE
5
15
100
AcDbSymbolTableRecord
100
AcDbLinetypeTableRecord
2
BYLAYER
70
0
0
ENDTAB
0
TABLE
2
LAYER
5
2
100
AcDbSymbolTable
70
2
0
LAYER
5
50
100
AcDbSymbolTableRecord
100
AcDbLayerTableRecord
2
0
70
0
6
CONTINUOUS
0
ENDTAB
0
TABLE
2
STYLE
5
3
100
AcDbSymbolTable
70
1
0
STYLE
5
11
100
AcDbSymbolTableRecord
100
AcDbTextStyleTableRecord
2
STANDARD
70
0
0
ENDTAB
0
TABLE
2
VIEW
5
6
100
AcDbSymbolTable
70
0
0
ENDTAB
0
TABLE
2
UCS
5
7
100
AcDbSymbolTable
70
0
0
ENDTAB
0
TABLE
2
APPID
5
9
100
AcDbSymbolTable
70
2
0
APPID
5
12
100
AcDbSymbolTableRecord
100
AcDbRegAppTableRecord
2
ACAD
70
0
0
ENDTAB
0
TABLE
2
DIMSTYLE
5
A
100
AcDbSymbolTable
70
1
0
ENDTAB
0
TABLE
2
BLOCK_RECORD
5
1
100
AcDbSymbolTable
70
1
0
BLOCK_RECORD
5
1F
100
AcDbSymbolTableRecord
100
AcDbBlockTableRecord
2
*MODEL_SPACE
0
BLOCK_RECORD
5
1B
100
AcDbSymbolTableRecord
100
AcDbBlockTableRecord
2
*PAPER_SPACE
0
ENDTAB
0
ENDSEC
0
SECTION
2
BLOCKS
0
BLOCK
5
20
100
AcDbEntity
100
AcDbBlockBegin
2
*MODEL_SPACE
0
ENDBLK
5
21
100
AcDbEntity
100
AcDbBlockEnd
0
BLOCK
5
1C
100
AcDbEntity
100
AcDbBlockBegin
2
*PAPER_SPACE
0
ENDBLK
5
1D
100
AcDbEntity
100
AcDbBlockEnd
0
ENDSEC
0
SECTION
2
ENTITIES
0
CIRCLE
5
100
100
AcDbEntity
8
0
100
AcDbCircle
10
-195
20
-165
30
0
40
3.0000000000000071
210
0
220
0
230
1
0
CIRCLE
5
101
100
AcDbEntity
8
0
100
AcDbCircle
10
-195
20
-15
30
0
40
3.0000000000000071
210
0
220
0
230
1
0
CIRCLE
5
102
100
AcDbEntity
8
0
100
AcDbCircle
10
-105
20
-165
30
0
40
3.0000000000000071
210
0
220
0
230
1
0
CIRCLE
5
103
100
AcDbEntity
8
0
100
AcDbCircle
10
-105
20
-15
30
0
40
3.0000000000000071
210
0
220
0
230
1
0
LWPOLYLINE
5
104
100
AcDbEntity
8
0
100
AcDbPolyline
90
8
70
1
43
0.0
10
-300
20
-175
10
-300
20
-4.9999999999999973
42
-0.41421356237309392
10
-295
20
0
10
-5.0000000000000009
20
1.1102230246251565e-15
42
-0.41421356237309515
10
0
20
-5
10
2.3314683517128287e-14
20
-175.00000000000003
42
-0.4142135623730922
10
-5
20
-180.00000000000003
10
-295
20
-180
42
-0.41421356237309503
0
LWPOLYLINE
5
105
100
AcDbEntity
8
0
100
AcDbPolyline
90
4
70
1
43
0.0
10
-159.50969452225738
20
-143.15973528735381
10
-159.50969452225735
20
-174.15973528735378
10
-140.50969452225735
20
-174.15973528735378
10
-140.5096945222574
20
-143.15973528735381
0
LWPOLYLINE
5
106
100
AcDbEntity
8
0
100
AcDbPolyline
90
4
70
1
43
0.0
10
-89.724393209548211
20
-157.01506390109239
10
-89.72439320954922
20
-167.01506390109242
10
-24.724393209546434
20
-167.01506390109242
10
-24.724393209546438
20
-157.01506390109239
0
LWPOLYLINE
5
107
100
AcDbEntity
8
0
100
AcDbPolyline
90
4
70
1
43
0.0
10
-67.920000000000002
20
-84.140000000000001
10
-67.920000000000002
20
-103.14
10
-48.920000000000002
20
-103.14
10
-48.920000000000002
20
-84.140000000000001
0
LWPOLYLINE
5
108
100
AcDbEntity
8
0
100
AcDbPolyline
90
4
70
1
43
0.0
10
-135.38710678118503
20
-71.482893218813459
10
-135.38710678118503
20
-52.482893218813452
10
-154.38710678118676
20
-52.482893218813452
10
-154.3871067811852
20
-71.482893218813459
0
LWPOLYLINE
5
109
100
AcDbEntity
8
0
100
AcDbPolyline
90
4
70
1
43
0.0
10
-96.920000000000016
20
-103.14
10
-77.920000000000002
20
-103.14
10
-77.920000000000002
20
-84.140000000000001
10
-96.920000000000016
20
-84.140000000000001
0
LWPOLYLINE
5
110
100
AcDbEntity
8
0
100
AcDbPolyline
90
4
70
1
43
0.0
10
-159.42000000000002
20
-84.140000000000001
10
-159.42000000000002
20
-103.14
10
-140.42000000000002
20
-103.14
10
-140.42000000000002
20
-84.140000000000001
0
LWPOLYLINE
5
111
100
AcDbEntity
8
0
100
AcDbPolyline
90
4
70
1
43
0.0
10
-123.92000000000003
20
-72.639999999999986
10
-123.92000000000003
20
-91.640000000000001
10
-104.92000000000002
20
-91.640000000000001
10
-104.92000000000002
20
-72.639999999999986
0
LWPOLYLINE
5
112
100
AcDbEntity
8
0
100
AcDbPolyline
90
4
70
1
43
0.0
10
-122.57978047679057
20
-37.079802342031954
10
-122.57978047679057
20
-18.079802342031954
10
-141.57978047679057
20
-18.079802342031954
10
-141.57978047679057
20
-37.079802342031954
0
LWPOLYLINE
5
113
100
AcDbEntity
8
0
100
AcDbPolyline
90
4
70
1
43
0.0
10
-246.9914299896476
20
-115.84879481044285
10
-227.9914299896476
20
-115.84879481044285
10
-227.9914299896476
20
-96.848794810442882
10
-246.9914299896476
20
-96.848794810442882
0
LWPOLYLINE
5
114
100
AcDbEntity
8
0
100
AcDbPolyline
90
4
70
1
43
0.0
10
-168.29865944346054
20
-115.8529729962282
10
-168.29865944346054
20
-96.852972996228175
10
-187.29865944346051
20
-96.852972996228175
10
-187.29865944346051
20
-115.8529729962282
0
LWPOLYLINE
5
115
100
AcDbEntity
8
0
100
AcDbPolyline
90
4
70
1
43
0.0
10
-163.19859941987121
20
-82.806826501699476
10
-163.19859941987121
20
-63.806826501699454
10
-182.19859941987121
20
-63.806826501699454
10
-182.19859941987121
20
-82.806826501699476
0
LWPOLYLINE
5
116
100
AcDbEntity
8
0
100
AcDbPolyline
90
4
70
1
43
0.0
10
-241.90872594007953
20
-82.79979066174792
10
-222.90872594007953
20
-82.79979066174792
10
-222.90872594007953
20
-63.799790661747906
10
-241.90872594007953
20
-63.799790661747906
0
LWPOLYLINE
5
117
100
AcDbEntity
8
0
100
AcDbPolyline
90
4
70
1
43
0.0
10
-217.80420908509043
20
-115.80083757811283
10
-198.80420908509046
20
-115.80083757811283
10
-198.80420908509046
20
-96.800837578112862
10
-217.80420908509043
20
-96.800837578112862
0
LWPOLYLINE
5
118
100
AcDbEntity
8
0
100
AcDbPolyline
90
4
70
1
43
0.0
10
-193.71427245680275
20
-63.833742406138121
10
-212.71427245680272
20
-63.833742406138121
10
-212.71427245680272
20
-82.833742406138128
10
-193.71427245680275
20
-82.833742406138128
0
CIRCLE
5
119
100
AcDbEntity
8
0
100
AcDbCircle
10
-15
20
-15
30
0
40
3.0000000000000004
210
0
220
0
230
1
0
CIRCLE
5
120
100
AcDbEntity
8
0
100
AcDbCircle
10
-285
20
-165
30
0
40
3.0000000000000071
210
0
220
0
230
1
0
CIRCLE
5
121
100
AcDbEntity
8
0
100
AcDbCircle
10
-15
20
-90
30
0
40
3.0000000000000004
210
0
220
0
230
1
0
CIRCLE
5
122
100
AcDbEntity
8
0
100
AcDbCircle
10
-285
20
-90
30
0
40
3.0000000000000071
210
0
220
0
230
1
0
CIRCLE
5
123
100
AcDbEntity
8
0
100
AcDbCircle
10
-285
20
-15
30
0
40
3.0000000000000071
210
0
220
0
230
1
0
CIRCLE
5
124
100
AcDbEntity
8
0
100
AcDbCircle
10
-15
20
-165
30
0
40
3.0000000000000004
210
0
220
0
230
1
0
ENDSEC
0
SECTION
2
OBJECTS
0
DICTIONARY
5
C
100
AcDbDictionary
3
ACAD_GROUP
350
D
3
ACAD_MLINESTYLE
350
17
0
DICTIONARY
5
D
100
AcDbDictionary
0
DICTIONARY
5
1A
330
C
100
AcDbDictionary
0
DICTIONARY
5
17
100
AcDbDictionary
0
ENDSEC
0
EOF
